<svg width="639.9999999999999" height="480" xmlns="http://www.w3.org/2000/svg">
 <!-- Created with Method Draw - http://github.com/duopixel/Method-Draw/ -->
 <g>
  <title>background</title>
  <rect fill="#fff" id="canvas_background" height="482" width="642" y="-1" x="-1"/>
 </g>
 <g>
  <title>Layer 1</title>
  <path id="svg_24" d="m428.524401,241.24568c-8.404199,-1.598855 -17.151285,-2.651566 -24.253918,-2.93651l-1.252583,-0.047491c0.286904,-0.712361 0.503832,-1.195184 0.573809,-1.26642c0.153949,-0.142472 0.279907,-0.744022 0.293902,-1.329741c0,-0.32452 0.125958,-1.377231 0.321893,-2.770293c1.924359,0.079151 4.478508,0.142472 7.26358,0.166218c10.755416,0.094981 22.007666,1.076457 29.726094,2.619906c4.597468,0.918154 6.115962,0.886494 2.722093,-0.047491c-3.435855,-0.9419 -13.62446,-2.327046 -21.741755,-2.928595c-5.451184,-0.419501 -13.267579,-0.577804 -17.872045,-0.490738c0.132956,-0.902324 0.286904,-1.907545 0.447851,-2.93651c0.650783,-3.981307 0.867711,-7.986359 0.881706,-15.956887c0.013995,-12.363421 -0.573809,-15.766924 -4.135622,-23.943246c-1.448517,-3.340182 -3.085972,-6.173796 -5.066312,-8.738295c1.728424,-5.770124 1.686438,-14.706298 -0.104965,-22.542269c-1.476508,-6.42708 -1.994335,-6.838666 -7.144619,-5.603907c-4.366545,1.052711 -7.865379,2.485348 -12.350884,5.041933c-2.120293,1.211014 -5.045319,3.094813 -7.165612,4.574941c-5.528158,-2.200404 -11.245253,-3.656787 -17.347219,-4.440384c-6.185939,-0.791512 -21.349886,-0.348265 -26.731092,0.775682c-5.262246,1.100202 -9.999668,2.445773 -14.289238,4.044628c-2.141286,-1.495958 -5.248251,-3.514314 -7.466512,-4.780734c-4.506498,-2.5645 -8.005332,-3.989222 -12.385873,-5.041933c-5.136288,-1.242674 -5.668111,-0.823173 -7.137622,5.603907c-1.819394,7.938868 -1.833389,17.025429 -0.034988,22.779723c0.20993,0.656955 0.335888,1.123947 0.384872,1.488043c-7.29157,10.384641 -9.670777,22.004041 -8.089304,38.222127c0.412862,4.226675 1.04965,8.105086 1.938354,11.658976c-4.653449,-0.03166 -11.273243,0.158302 -16.052651,0.506568c-8.13129,0.609464 -18.319895,1.978781 -21.75575,2.92068c-3.386871,0.933984 -1.882373,0.965645 2.722093,0.055406c7.718428,-1.535534 18.977676,-2.532839 29.726094,-2.619906c2.029324,-0.007915 3.925692,-0.055406 5.556149,-0.102897c0.489837,1.875884 1.04965,3.664702 1.686438,5.366453l-0.048984,0.007915c-7.102633,0.277029 -15.842721,1.329741 -24.24692,2.928595c-6.304899,1.195184 -15.611798,3.585551 -16.696436,4.274166c-1.14062,0.720276 -0.20993,0.561974 4.674442,-0.839003c8.908032,-2.548669 20.489172,-4.503705 34.834392,-5.865106l1.602466,-0.158302c3.078974,8.089255 7.823393,14.263051 14.527159,19.075445c4.100634,2.952341 10.671444,5.983833 13.981341,6.45874c0.909697,0.126642 3.554815,0.744022 5.878041,1.361401c2.330224,0.61738 6.885705,1.543449 10.118628,2.073762l0.076974,0c-0.062979,0.047491 -0.11896,0.079151 -0.174942,0.126642c-3.918694,2.303301 -6.465845,5.888851 -8.180274,11.532334c-0.769744,0.261199 -1.728424,0.61738 -2.764079,1.021051c-3.701766,1.424722 -5.143286,1.717582 -8.894036,1.749242c-3.890704,0.03166 -4.814396,-0.158302 -7.137622,-1.393062c-3.379874,-1.780903 -6.528824,-5.057763 -8.628125,-8.967834c-3.505832,-6.537891 -9.565812,-11.160323 -14.618129,-11.160323c-4.317561,0 -5.136288,1.978781 -2.015328,4.8678c4.702433,4.345402 8.215262,8.777871 9.656782,12.165543c0.81173,1.899629 2.057314,4.83614 2.778074,6.522061c0.762746,1.796733 2.393203,4.234591 3.946685,5.920512c3.652783,3.941731 7.179608,5.82553 12.441854,6.712024c3.526825,0.585719 4.394536,0.585719 8.558148,-0.01583c2.008331,-0.277029 3.701766,-0.601549 5.22026,-1.005221c0,1.93129 0,4.155439 0,6.76743c0,13.978106 -0.146951,18.473896 -0.636788,19.787806c-0.923692,2.501179 -2.995002,5.073594 -5.01033,6.229201c-2.008331,1.155608 -2.631123,2.429943 -1.784405,3.601381c0.468844,0.63321 1.371543,0.744022 4.401533,0.522398c5.752083,-0.403671 9.817728,-2.809869 11.889038,-7.052374c0.664778,-1.361401 0.818727,-4.100034 1.028657,-18.347254c0.223925,-15.458234 0.321893,-16.946277 1.210597,-19.154597c0.53882,-1.31391 1.315562,-2.738632 1.749417,-3.126473c0.727757,-0.680701 0.776741,0.66487 0.776741,19.154597c-0.006998,20.405186 -0.188937,22.866789 -1.994335,26.79269c-0.405865,0.894409 -1.175608,2.057932 -1.714429,2.61199c-0.944685,0.97356 -1.343552,3.466824 -0.685771,4.21876c1.084639,1.218929 6.521827,-0.696531 9.488838,-3.340182c5.052316,-4.52745 5.654116,-8.271303 5.696102,-35.309362l0.020993,-15.861906l1.532489,0.166218l1.532489,0.158302l0.251916,20.745536c0.286904,23.357527 0.32889,23.697877 3.84172,28.209497c1.994335,2.548669 4.002666,3.957561 7.270577,5.057763c4.373543,1.488043 5.689104,-0.807343 2.750084,-4.788649c-3.197934,-4.329572 -3.351883,-5.983833 -3.176941,-31.613c0.11896,-16.431794 0.11896,-16.431794 1.056648,-15.474065c1.973342,2.026271 2.351217,5.350623 2.351217,20.761367c0,19.138766 0.482839,20.959245 6.458848,24.299426c2.79207,1.543449 3.575808,1.733412 7.151617,1.749242c3.806731,0.01583 4.037655,-0.047491 4.177608,-1.171438c0.11896,-0.910239 -0.349883,-1.527619 -2.127291,-2.754463c-2.330224,-1.6226 -3.946685,-3.696362 -4.961347,-6.308353c-0.384872,-1.005221 -0.643785,-7.590603 -0.818727,-21.149208c-0.251916,-18.940888 -0.307897,-19.803637 -1.35055,-22.771808c-1.406531,-3.989222 -3.554815,-7.139441 -6.276908,-9.229033c-0.706764,-0.522398 -1.413529,-0.95773 -2.330224,-1.28225c1.126625,-0.126642 2.218261,-0.261199 3.274909,-0.435332c11.000334,-1.654261 16.815397,-3.031492 21.482841,-5.073594c9.87371,-4.297912 16.549485,-11.437352 20.16728,-21.560794c0.321893,-0.902324 0.643785,-1.757157 0.916695,-2.445773l2.785072,0.261199c14.352217,1.369316 25.933358,3.324351 34.84139,5.880936c4.884372,1.400977 5.815062,1.567194 4.674442,0.831088c-1.063646,-0.672785 -10.370544,-3.055237 -16.668446,-4.250421zm-42.083976,-0.245369c-1.630457,4.052543 -6.178941,9.260693 -9.852717,11.302795c-3.624792,2.026271 -9.306899,3.56972 -15.744753,4.305827c-4.401533,0.506568 -28.949353,0.656955 -33.001003,0.205793c-13.41453,-1.488043 -20.930026,-4.408723 -26.472179,-10.257999c-5.248251,-5.556416 -7.697435,-13.099528 -7.270577,-22.383967c0.272909,-5.8097 1.511496,-9.458571 4.751417,-13.89104c2.946018,-4.036713 6.045985,-6.529976 9.698768,-7.796396c3.057981,-1.060626 12.441854,-1.155608 25.05865,-0.237454c5.577142,0.403671 10.188605,0.403671 15.758749,0c13.197602,-0.9419 22.007666,-0.839003 25.261582,0.300775c5.115295,1.788818 9.775742,6.601212 12.57481,13.012462c1.25958,2.865274 1.504499,4.084203 1.686438,8.508757c0.251916,6.094644 -0.678774,12.569215 -2.449184,16.930447zm-66.547824,-26.167395c-7.508498,-1.488043 -11.798069,13.052037 -6.038988,20.476422c2.736088,3.52223 5.164279,4.100034 8.201267,1.96295c2.813063,-1.986696 4.338554,-5.698888 4.338554,-10.511283c0,-6.419164 -2.58214,-11.136577 -6.500834,-11.92809zm45.575813,0.870663c-7.508498,-1.488043 -11.805066,13.036207 -6.045985,20.468507c2.743086,3.52223 5.164279,4.107949 8.208265,1.955035c2.806065,-1.978781 4.338554,-5.698888 4.338554,-10.511283c0,-6.395419 -2.58214,-11.128662 -6.500834,-11.912259zm-20.19527,28.589423c-0.160946,0.585719 -0.944685,1.456383 -1.735422,1.923375c-2.001333,1.163523 -3.442853,0.759852 -5.556149,-1.416807c-1.308564,-1.337656 -1.903366,-2.042102 -2.302233,-0.641125c-0.370876,1.29808 1.959347,3.902155 3.757748,4.701583c1.65145,0.744022 2.834056,0.767767 4.625459,-0.079151c1.777408,-0.839003 3.33089,-3.094813 3.33089,-4.559111c0,-1.361401 -1.728424,-1.29808 -2.120293,0.071236zm-2.218261,-4.551195c1.14062,-1.139778 1.399534,-3.482654 0.307897,-4.725328s-3.309897,-1.052711 -4.177608,0.34035c-1.007664,1.630515 -0.468844,2.87319 0.251916,4.195015c1.119627,0.981475 2.624126,1.179353 3.617794,0.189963z" stroke-opacity="null" stroke-width="1.5" stroke="#000" fill="#FFA9A2"/>
  <text xml:space="preserve" text-anchor="start" font-family="'Simonetta', serif" font-size="45" id="svg_25" y="99.999992" x="140.5" stroke-opacity="null" stroke-width="0" stroke="#000" fill="#000000">It is a big wuzei</text>
 </g>
</svg>